<svg width="55" height="59" viewBox="0 0 55 59" fill="none" xmlns="http://www.w3.org/2000/svg">
<path d="M54.3261 15.9659V49.9016L52.2792 50.511L37.2677 54.9784L31.1499 56.7986L27.5767 57.8624V23.1499H27.5789L44.3059 18.6575L50.2096 17.0708L54.2361 15.9899L54.3261 15.9659Z" fill="#8BD9FC"/>
<path d="M54.3262 15.9659L50.2096 17.0708L44.3059 18.6575L27.579 23.1499H27.5767L14.3364 19.3853L14.407 19.1404L28.2784 15.123L40.3318 11.6318L40.4309 11.3334L54.2874 15.9522L54.3262 15.9659Z" fill="#8BD9FC"/>
<path d="M40.4308 11.3334L40.3317 11.6318L28.2783 15.123L14.4069 19.1404L14.3363 19.3853L2.30908 15.9659L22.7937 9.87653L29.8057 7.79321L40.4308 11.3334Z" fill="#8BD9FC"/>
<path d="M27.5766 23.1499V57.8624L27.5595 57.867L13.2109 53.4817L2.30908 50.1488V15.9659L3.49597 16.3031L13.3453 19.104L14.3363 19.3854L27.5766 23.1499Z" fill="#8BD9FC"/>
<path d="M27.5597 58.5208C27.4948 58.521 27.4303 58.5114 27.3683 58.4923L2.1179 50.7753C1.98371 50.7343 1.86624 50.6513 1.78278 50.5385C1.69932 50.4257 1.65428 50.2891 1.65431 50.1488V15.966C1.6536 15.8243 1.69884 15.6862 1.78324 15.5724C1.86765 15.4587 1.98667 15.3753 2.12246 15.3349L29.6191 7.16452C29.7477 7.12688 29.8848 7.12926 30.0121 7.17136L40.6383 10.7127L54.5346 15.3452C54.6649 15.3886 54.7782 15.472 54.8586 15.5834C54.9389 15.6948 54.9822 15.8286 54.9823 15.966V49.9016C54.9819 50.0426 54.9362 50.1798 54.8519 50.2928C54.7676 50.4058 54.6492 50.4887 54.5141 50.5293L27.7636 58.4889H27.7556H27.7385C27.6806 58.5075 27.6205 58.5183 27.5597 58.5208V58.5208ZM2.96535 49.6647L27.5688 57.1824L53.6781 49.413V16.4375L40.2236 11.9542L29.7945 8.47899L2.96535 16.4546V49.6647Z" fill="#302C2C"/>
<path d="M27.579 23.8048C27.5177 23.8044 27.4568 23.796 27.3978 23.7797L2.13032 16.5957C1.96311 16.5483 1.82159 16.4364 1.73689 16.2846C1.65219 16.1329 1.63125 15.9537 1.67868 15.7864C1.72611 15.6192 1.83802 15.4777 1.98979 15.393C2.14156 15.3083 2.32077 15.2874 2.48798 15.3348L27.5824 22.4698L54.1564 15.3348C54.3229 15.2929 54.4993 15.3181 54.6474 15.4049C54.7956 15.4917 54.9037 15.6333 54.9485 15.7991C54.9933 15.9649 54.9712 16.1416 54.887 16.2913C54.8027 16.4409 54.6631 16.5515 54.4981 16.5992L27.7487 23.782C27.6933 23.7969 27.6363 23.8046 27.579 23.8048V23.8048Z" fill="#302C2C"/>
<path d="M27.5763 58.5173C27.4904 58.5176 27.4053 58.5009 27.3259 58.4683C27.2464 58.4356 27.1742 58.3876 27.1134 58.3269C27.0525 58.2663 27.0042 58.1943 26.9713 58.1149C26.9383 58.0356 26.9214 57.9505 26.9214 57.8646V23.1498C26.9214 22.9761 26.9904 22.8095 27.1132 22.6867C27.236 22.5639 27.4026 22.4949 27.5763 22.4949C27.75 22.4949 27.9166 22.5639 28.0395 22.6867C28.1623 22.8095 28.2313 22.9761 28.2313 23.1498V57.8612C28.2313 58.035 28.1623 58.2017 28.0395 58.3247C27.9167 58.4477 27.7501 58.517 27.5763 58.5173Z" fill="#302C2C"/>
<path d="M54.2873 15.9521C52.8703 16.3155 51.483 16.7039 50.2095 17.0706C47.2184 17.9318 44.8696 18.6653 44.3058 18.6573C40.0503 18.5571 36.2322 17.7575 35.919 16.6207C35.1592 13.8642 34.1273 15.0807 28.2782 15.1229C27.9707 15.1229 27.6495 15.1229 27.3158 15.1229C23.2767 15.0636 22.6525 12.1693 22.7937 9.88325L29.8057 7.79993L40.4308 11.3401L54.2873 15.9521Z" fill="#BCFCAC"/>
<path d="M44.3125 19.3123H44.2851C42.1209 19.2622 40.0547 19.0321 38.4817 18.6665C36.5533 18.2188 35.5065 17.606 35.2832 16.795C35.0121 15.8109 34.7672 15.6457 34.5599 15.5671C34.1499 15.4134 33.3617 15.4806 32.2716 15.5728C31.2464 15.6594 29.9764 15.7665 28.2781 15.779C27.9865 15.779 27.6664 15.779 27.3019 15.779C25.5933 15.7539 24.2823 15.2539 23.3938 14.2982C22.4393 13.2674 22.0167 11.7695 22.1352 9.8434C22.1438 9.70962 22.1931 9.58169 22.2766 9.47681C22.3601 9.37193 22.4737 9.29515 22.6022 9.25679L29.6187 7.1655C29.7472 7.1269 29.8844 7.12889 30.0117 7.17119L40.6379 10.7125L54.4944 15.3348C54.6274 15.3803 54.7422 15.4675 54.8219 15.5834C54.9015 15.6992 54.9417 15.8376 54.9366 15.9781C54.9315 16.1186 54.8813 16.2538 54.7935 16.3635C54.7057 16.4733 54.5848 16.5519 54.4489 16.5877C53.2563 16.893 51.9669 17.2472 50.3916 17.7017C49.7332 17.8908 49.1067 18.0742 48.5224 18.245C46.0712 18.9615 44.849 19.3123 44.3125 19.3123ZM33.7899 14.1695C35.2069 14.1695 36.0304 14.5784 36.5453 16.4476C36.5453 16.4476 36.7902 16.9408 38.8564 17.409C40.3372 17.745 42.2736 17.9557 44.3159 18.0035C44.6758 18.0035 46.4402 17.4876 48.1454 16.9887C48.7308 16.8167 49.3596 16.6333 50.0191 16.4431C50.731 16.238 51.386 16.0535 51.9976 15.8838L40.2233 11.9552L29.7942 8.47882L23.4314 10.3696C23.4235 11.3731 23.6034 12.584 24.3586 13.3995C24.9953 14.0829 25.9931 14.4452 27.3201 14.4645C27.6744 14.4702 27.9831 14.4714 28.2667 14.4645C29.916 14.4531 31.161 14.3506 32.1611 14.2629C32.7819 14.2151 33.3206 14.1695 33.7945 14.1695H33.7899Z" fill="#302C2C"/>
<path d="M14.3077 22.7124C14.2985 23.8575 14.2446 25.0004 14.1459 26.1409C14.0457 27.2902 13.8794 28.4919 13.2016 29.4248C11.9669 31.1231 9.42 31.4478 8.20122 33.1552C6.60655 35.39 7.97341 38.9894 6.03703 40.9361C5.51648 41.46 4.8228 41.7744 4.12343 42.0125C3.52994 42.2083 2.92416 42.3647 2.31006 42.4806V16.4078C2.41105 16.3895 2.51243 16.3736 2.61419 16.3599C2.90699 16.3228 3.2018 16.3038 3.49695 16.303L13.3463 19.1039C13.3668 19.1267 13.3884 19.1483 13.4078 19.1711C14.2302 20.1074 14.3168 21.4651 14.3077 22.7124Z" fill="#BCFCAC"/>
<path d="M2.30925 43.1355C2.13564 43.1352 1.96923 43.0661 1.84646 42.9434C1.7237 42.8206 1.6546 42.6542 1.6543 42.4806V16.4077C1.65443 16.2547 1.70817 16.1065 1.80617 15.989C1.90418 15.8714 2.04026 15.7919 2.19079 15.7642C2.3047 15.7425 2.4186 15.7243 2.53251 15.7106C2.85178 15.6704 3.1732 15.6494 3.495 15.648C3.55666 15.6472 3.61809 15.6557 3.67725 15.6731L13.5266 18.474C13.6416 18.5067 13.7456 18.5701 13.8273 18.6574C13.8535 18.6858 13.8786 18.7132 13.9036 18.7428C14.8536 19.8215 14.9755 21.2908 14.9641 22.7169C14.9561 23.8708 14.9014 25.0417 14.8012 26.1967C14.6987 27.3745 14.5233 28.722 13.7339 29.8098C13.0311 30.7769 12.0083 31.3259 11.0207 31.8601C10.1152 32.3465 9.26087 32.8055 8.73691 33.539C8.09107 34.4434 8.00678 35.6679 7.91793 36.9642C7.80402 38.5588 7.69581 40.2002 6.50323 41.4065C5.8403 42.0728 4.99627 42.4156 4.33904 42.64C3.7162 42.8449 3.08032 43.0078 2.43569 43.1276C2.39388 43.1341 2.35155 43.1368 2.30925 43.1355V43.1355ZM2.96534 16.9807V41.6662C3.30706 41.5819 3.61688 41.4919 3.91417 41.3916C4.69442 41.1274 5.20585 40.8449 5.57263 40.4804C6.42122 39.6261 6.51348 38.2912 6.6103 36.8776C6.70712 35.464 6.80963 33.9867 7.66961 32.777C8.37013 31.794 9.40211 31.2404 10.4033 30.7051C11.3009 30.2221 12.1495 29.7654 12.6757 29.0409C13.2692 28.2254 13.4116 27.0875 13.4993 26.0851C13.5961 24.9643 13.6496 23.8287 13.6576 22.7078H14.3125H13.6576C13.6656 21.5802 13.5881 20.4366 12.9844 19.6814L3.41641 16.9602C3.25808 16.9613 3.10886 16.9693 2.96534 16.9807Z" fill="#302C2C"/>
<path d="M27.5767 40.7174V57.8623H27.5596L13.2167 53.4816C13.2162 53.4721 13.2162 53.4626 13.2167 53.4531C13.1962 52.8582 13.3096 52.2664 13.5486 51.7213C13.7875 51.1761 14.1459 50.6916 14.5972 50.3036C15.5768 49.4778 16.971 49.1167 17.6636 48.038C18.3413 46.9799 18.1112 45.588 18.4871 44.3931C18.9427 42.9385 20.2583 41.9031 21.6514 41.2823C23.5148 40.4635 25.5921 40.2654 27.5767 40.7174V40.7174Z" fill="#BCFCAC"/>
<path d="M27.5591 58.5207C27.4942 58.521 27.4297 58.5114 27.3677 58.4922L13.0157 54.1069C12.8918 54.068 12.7823 53.993 12.7011 53.8916C12.62 53.7901 12.5709 53.6668 12.5601 53.5374C12.559 53.5169 12.559 53.4963 12.5601 53.4759C12.5398 52.7822 12.6748 52.0927 12.9553 51.4579C13.2357 50.8232 13.6545 50.2591 14.181 49.807C14.603 49.4707 15.0557 49.1748 15.533 48.9231C16.1743 48.5597 16.7791 48.2157 17.1174 47.6895C17.4409 47.1849 17.5104 46.5208 17.5844 45.818C17.6242 45.2696 17.7193 44.7265 17.8681 44.1972C18.3237 42.7392 19.5766 41.4919 21.39 40.6843C23.383 39.8048 25.6071 39.5939 27.73 40.0829C27.874 40.1166 28.0024 40.1979 28.0944 40.3136C28.1864 40.4294 28.2366 40.5729 28.2368 40.7208V57.8623C28.2367 58.0072 28.1886 58.1479 28.1 58.2625C28.0113 58.3771 27.8872 58.4591 27.747 58.4956H27.7288C27.6736 58.5113 27.6165 58.5197 27.5591 58.5207V58.5207ZM13.8757 52.9997L26.9212 56.9864V41.2539C25.2281 40.9663 23.4878 41.1822 21.9162 41.8746C21.0677 42.2517 19.5744 43.106 19.1119 44.5822C18.9913 45.0292 18.915 45.487 18.8841 45.949C18.7975 46.7714 18.7087 47.6223 18.2178 48.3889C17.7052 49.1862 16.9284 49.6293 16.1766 50.0553C15.7701 50.269 15.3836 50.5187 15.0216 50.8014C14.3711 51.3595 13.9607 52.1468 13.8757 52.9997Z" fill="#302C2C"/>
<path d="M54.3259 15.9659V42.4238C53.6311 42.3383 52.9738 42.1299 52.5171 41.6196C51.8781 40.9054 51.861 39.8495 51.5432 38.9451C50.7846 36.7889 48.3789 35.6498 47.266 33.652C46.2956 31.9103 46.4995 29.5867 47.757 28.0399C48.5543 27.0671 49.6934 26.4076 50.4087 25.3779C51.3017 24.0999 51.4145 22.4574 51.7824 20.9436C52.2277 19.1326 53.0652 17.4416 54.2359 15.9899L54.3259 15.9659Z" fill="#BCFCAC"/>
<path d="M54.3264 43.0786C54.2995 43.0803 54.2725 43.0803 54.2455 43.0786C53.2591 42.9567 52.5369 42.623 52.0301 42.0614C51.4856 41.4532 51.3079 40.6854 51.1519 40.0111C51.0912 39.7266 51.0152 39.4456 50.9241 39.1694C50.5561 38.1249 49.711 37.3173 48.8157 36.463C48.04 35.7226 47.237 34.956 46.6925 33.9776C45.5899 31.9991 45.8188 29.3895 47.2472 27.6342C47.6448 27.1701 48.082 26.7414 48.5537 26.3528C49.0537 25.9165 49.5253 25.5042 49.8704 25.0099C50.4627 24.1613 50.6735 23.0951 50.8956 21.9663C50.9719 21.5825 51.0505 21.1849 51.145 20.7954C51.6139 18.891 52.4946 17.1126 53.725 15.5854C53.8124 15.4769 53.9321 15.3991 54.0667 15.3632L54.1555 15.3393C54.2526 15.3135 54.3542 15.3103 54.4527 15.33C54.5512 15.3497 54.6438 15.3918 54.7234 15.453C54.803 15.5142 54.8674 15.5929 54.9118 15.683C54.9561 15.7731 54.9791 15.8722 54.9791 15.9726V42.4236C54.9794 42.5096 54.9627 42.5948 54.9299 42.6744C54.8972 42.7539 54.8491 42.8262 54.7883 42.887C54.7276 42.9479 54.6554 42.9961 54.5759 43.029C54.4964 43.0619 54.4113 43.0787 54.3253 43.0786H54.3264ZM53.6714 17.9751C53.1092 18.9522 52.6874 20.0036 52.4185 21.0984C52.3308 21.4594 52.2579 21.8251 52.1816 22.2123C51.9446 23.422 51.6963 24.675 50.9468 25.7525C50.5094 26.3778 49.9536 26.8631 49.4171 27.3324C49.0021 27.6726 48.6169 28.0476 48.2655 28.4532C47.1834 29.7825 47.0046 31.835 47.8384 33.3329C48.2872 34.1393 48.9843 34.8045 49.7224 35.5096C50.6894 36.4322 51.6895 37.3868 52.1611 38.7286C52.2682 39.0502 52.3572 39.3776 52.4276 39.7093C52.5609 40.2788 52.6862 40.8267 53.0051 41.1832C53.1878 41.3793 53.417 41.5262 53.6714 41.6104V17.9751Z" fill="#302C2C"/>
<path d="M52.2793 50.5109L37.2677 54.9737L31.1499 56.7962C31.88 54.5431 32.0714 52.1113 32.7218 49.8172C33.5032 47.0573 35.3234 44.2279 38.1494 43.7347C39.0241 43.5832 39.9593 43.6629 40.7692 43.2871C41.9731 42.7232 42.775 41.2003 44.102 41.2618C45.0622 41.3062 45.7525 42.2038 46.1409 43.0843C46.5293 43.9648 46.7879 44.9478 47.4896 45.6039C48.1912 46.26 49.1833 46.4559 49.9784 46.9707C51.1049 47.7088 51.7166 49.0062 52.1961 50.2649C52.2212 50.3514 52.2508 50.4312 52.2793 50.5109Z" fill="#BCFCAC"/>
<path d="M31.1499 57.4534C31.0466 57.4537 30.9446 57.4294 30.8524 57.3826C30.7603 57.3358 30.6805 57.2678 30.6197 57.1842C30.5589 57.1006 30.5188 57.0038 30.5026 56.9017C30.4865 56.7996 30.4948 56.6952 30.5269 56.5969C30.9096 55.4157 31.1374 54.198 31.3777 52.9086C31.5782 51.8334 31.7855 50.7217 32.0919 49.6418C32.4052 48.5336 33.0191 46.9195 34.1604 45.5151C35.2437 44.1835 36.5843 43.3452 38.0332 43.0923C38.3578 43.0354 38.679 43.0092 38.9911 42.9784C39.539 42.9328 40.0573 42.8896 40.4844 42.6902C40.8671 42.5114 41.2271 42.1879 41.6075 41.8473C42.283 41.2414 43.0484 40.5534 44.1248 40.6046C45.183 40.6536 46.133 41.4589 46.7321 42.8144C46.8278 43.0297 46.9144 43.2484 46.9986 43.4614C47.2549 44.1072 47.4975 44.7143 47.9292 45.1221C48.2562 45.4274 48.7061 45.6267 49.1822 45.8374C49.5816 46.0028 49.9664 46.2013 50.3326 46.4309C51.6209 47.2738 52.3043 48.7283 52.8032 50.0394C52.8351 50.1237 52.8659 50.208 52.8966 50.2922C52.9259 50.376 52.938 50.4648 52.9321 50.5533C52.9261 50.6419 52.9023 50.7283 52.8621 50.8073C52.8218 50.8864 52.766 50.9565 52.698 51.0135C52.6299 51.0704 52.551 51.1129 52.4661 51.1386L31.3367 57.4261C31.2761 57.4441 31.2132 57.4533 31.1499 57.4534ZM44.0212 41.9168C43.4995 41.9168 43.0279 42.3394 42.4846 42.8281C42.0495 43.2187 41.5996 43.6254 41.0403 43.884C40.4013 44.1824 39.7395 44.2371 39.1039 44.2895C38.8089 44.3145 38.5344 44.3373 38.2644 44.384C35.6902 44.8316 34.0397 47.579 33.354 49.9995C33.0647 51.0247 32.8619 52.1033 32.6705 53.1501C32.5054 54.034 32.3368 54.9396 32.1124 55.8326L51.4204 50.0861C51.0024 49.0609 50.4773 48.087 49.6207 47.5266C49.3145 47.34 48.9937 47.1781 48.6617 47.0425C48.1069 46.7965 47.5317 46.5425 47.0431 46.0846C46.3972 45.4798 46.0885 44.7029 45.7901 43.9512C45.707 43.7416 45.6284 43.5434 45.5441 43.3509C45.3994 43.024 44.8675 41.9567 44.0724 41.9191L44.0212 41.9168Z" fill="#302C2C"/>
<path d="M10.4825 24.1112C9.7577 24.119 9.0484 23.9012 8.45273 23.4882C5.94682 21.7489 5.35908 16.5799 6.71113 8.12356C6.72202 8.03636 6.75035 7.95225 6.79443 7.87623C6.83851 7.80021 6.89743 7.73383 6.9677 7.68106C7.03796 7.62829 7.11813 7.59019 7.20342 7.56905C7.28871 7.5479 7.37739 7.54414 7.46417 7.55798C7.55095 7.57182 7.63405 7.60297 7.70854 7.6496C7.78302 7.69623 7.84736 7.75736 7.89773 7.82937C7.94809 7.90138 7.98346 7.98279 8.0017 8.06875C8.01995 8.15471 8.02071 8.24346 8.00395 8.32972C6.34435 18.7099 8.0404 21.6088 9.19881 22.4118C10.4609 23.2877 12.0271 22.4118 12.0464 22.4118C12.1975 22.326 12.3764 22.3037 12.5439 22.3499C12.7114 22.396 12.8537 22.5068 12.9394 22.6578C13.0252 22.8089 13.0475 22.9878 13.0014 23.1553C12.9552 23.3228 12.8445 23.465 12.6934 23.5508C12.0109 23.9093 11.2534 24.1014 10.4825 24.1112V24.1112Z" fill="#302C2C"/>
<path d="M6.2681 5.95477C6.2681 5.95477 5.4833 3.01944 6.30569 1.72093C7.56776 -0.272409 10.4268 1.62638 8.08261 5.68368" fill="white"/>
<path d="M5.70463 6.10848C5.61692 5.78271 4.8811 2.88611 5.8117 1.41559C6.45185 0.405258 7.56811 0.0658238 8.46455 0.608011C9.61157 1.30283 10.1367 3.27908 8.57845 5.97749L7.57837 5.39885C8.81879 3.25174 8.41443 1.92703 7.86769 1.59671C7.51572 1.3837 7.09199 1.5557 6.78901 2.0341C6.2901 2.82118 6.54411 4.76782 6.82204 5.81005L5.70463 6.10848Z" fill="#302C2C"/>
<path d="M5.82545 7.40699C5.82545 7.40699 2.78761 7.39446 1.74993 6.26111C0.155263 4.52064 2.73977 2.25963 6.04073 5.58451" fill="white"/>
<path d="M5.82293 7.98572C5.48121 7.98572 2.4969 7.93446 1.32368 6.65076C0.516096 5.76799 0.480787 4.60047 1.23939 3.87945C2.20986 2.95454 4.25446 2.96821 6.45054 5.17796L5.63043 5.99466C3.88312 4.23483 2.49918 4.27698 2.03673 4.71779C1.7383 5.00141 1.79297 5.45475 2.17569 5.87392C2.80445 6.55735 4.74994 6.82617 5.82862 6.83186L5.82293 7.98572Z" fill="#302C2C"/>
<path d="M6.89383 8.85817C6.89383 8.85817 5.31739 11.462 3.81157 11.7616C1.4993 12.2286 0.891046 8.85134 5.44155 7.73621" fill="white"/>
<path d="M3.40364 12.3813C2.46165 12.3813 1.69507 11.8391 1.50713 10.9711C1.21439 9.66351 2.27712 7.9162 5.30357 7.17468L5.57923 8.29665C3.17128 8.88781 2.49468 10.0963 2.63364 10.7194C2.72363 11.1204 3.14052 11.3072 3.69638 11.1955C4.60762 11.0099 5.83893 9.48012 6.39934 8.55863L7.3869 9.15777C7.21262 9.44595 5.63048 11.9826 3.92532 12.3277C3.75359 12.3626 3.57887 12.3805 3.40364 12.3813V12.3813Z" fill="#302C2C"/>
<path d="M8.1709 5.69167C8.1709 5.69167 10.8032 4.17332 12.2715 4.63236C14.5222 5.33515 13.4299 8.58827 8.90331 7.37519" fill="white"/>
<path d="M10.754 8.22036C10.0772 8.2116 9.40435 8.11433 8.75272 7.93105L9.05229 6.81478C11.4443 7.45606 12.6221 6.72252 12.7998 6.10971C12.9137 5.71446 12.638 5.34996 12.097 5.18138C11.2074 4.90345 9.39287 5.65295 8.45885 6.19058L7.88135 5.19733C8.17408 5.02875 10.7814 3.56735 12.4375 4.08561C13.5766 4.44214 14.1962 5.43197 13.9046 6.43889C13.6279 7.40366 12.5526 8.22036 10.754 8.22036Z" fill="#302C2C"/>
<path d="M8.60802 7.41736C8.60802 7.41736 11.3987 8.61905 11.9113 10.0691C12.6938 12.2936 9.43383 13.3632 7.69678 9.00975" fill="white"/>
<path d="M10.7407 12.5851C9.55948 12.5851 8.11289 11.6147 7.16064 9.22381L8.23363 8.79666C9.1517 11.0998 10.4422 11.6021 11.0402 11.3777C11.4252 11.2342 11.5528 10.7946 11.3649 10.2603C11.0163 9.27165 9.04349 8.23397 8.37943 7.94807L8.83505 6.88647C9.14373 7.01974 11.8752 8.23625 12.4527 9.87648C12.8491 11.0053 12.4253 12.0919 11.4435 12.4598C11.2186 12.5434 10.9806 12.5859 10.7407 12.5851V12.5851Z" fill="#302C2C"/>
<path d="M7.06353 9.1019C8.07509 9.1019 8.89512 8.28187 8.89512 7.27031C8.89512 6.25875 8.07509 5.43872 7.06353 5.43872C6.05197 5.43872 5.23193 6.25875 5.23193 7.27031C5.23193 8.28187 6.05197 9.1019 7.06353 9.1019Z" fill="#FCD568"/>
<path d="M7.0594 9.68056C6.43819 9.6805 5.84085 9.44126 5.39134 9.01249C4.94183 8.58371 4.67466 7.99833 4.64528 7.37781C4.61591 6.75729 4.82658 6.14928 5.23357 5.67996C5.64056 5.21063 6.21262 4.91603 6.83105 4.85728C7.44948 4.79852 8.06679 4.98014 8.55487 5.36443C9.04296 5.74872 9.36434 6.30619 9.45233 6.92114C9.54033 7.53609 9.38817 8.16131 9.02744 8.66705C8.66671 9.1728 8.12511 9.52025 7.51502 9.63728C7.36481 9.66574 7.21228 9.68023 7.0594 9.68056V9.68056ZM7.06623 6.01739C6.98714 6.01735 6.90821 6.02459 6.83045 6.03903C6.66475 6.06507 6.50597 6.12412 6.36352 6.21267C6.22107 6.30122 6.09785 6.41747 6.00116 6.55453C5.90447 6.69159 5.83629 6.84666 5.80065 7.01056C5.76501 7.17446 5.76264 7.34386 5.79369 7.50869C5.82473 7.67352 5.88856 7.83044 5.98138 7.97015C6.0742 8.10986 6.19412 8.22951 6.33404 8.322C6.47397 8.4145 6.63103 8.47796 6.79594 8.50862C6.96084 8.53929 7.13022 8.53653 7.29404 8.50051C7.62044 8.43839 7.90879 8.24918 8.0957 7.97448C8.2826 7.69979 8.35275 7.3621 8.29071 7.0357C8.23631 6.75033 8.08443 6.49272 7.86107 6.30697C7.63771 6.12121 7.35674 6.01885 7.06623 6.01739V6.01739Z" fill="#302C2C"/>
</svg>
