<svg width="1366" height="648" viewBox="0 0 1366 648" fill="none" xmlns="http://www.w3.org/2000/svg">
<path d="M1364.98 0H0V642.268H1364.98V0Z" fill="url(#paint0_linear_327_565)"/>
<path opacity="0.9" d="M1364.98 17.5274V80.3667C1360.19 79.9634 1355.42 79.3525 1350.7 78.5366C1340.74 76.8063 1331.1 74.0944 1321.09 72.7135C1308.4 70.9666 1295.45 71.3992 1282.59 71.2328C1262.14 70.981 1241.76 69.2217 1221.68 65.9754C1215.6 64.9938 1209.42 63.8292 1204.1 61.1755C1198.78 58.5219 1194.39 54.0797 1193.83 48.9221C1192.92 40.6034 1201.57 33.9984 1209.41 28.8408C1215.18 25.0475 1221.08 21.196 1228.02 19.1912C1233.77 17.5274 1239.98 17.2446 1245.96 17.0117C1278.05 15.7888 1309.91 16.8037 1341.98 17.1614C1349.71 17.2446 1357.35 17.3278 1364.98 17.5274Z" fill="white"/>
<path opacity="0.9" d="M799.531 12.1869C796.84 16.5376 790.153 17.7105 784.332 18.351C742.98 22.9429 701.339 25.9044 659.608 26.1456C647.17 26.2233 634.741 26.0569 622.323 25.6465C613.911 25.3886 605.379 25.0143 597.296 23.1509C592.35 22.0562 587.594 20.4346 583.144 18.3261C578.549 16.1216 573.885 12.7526 573.825 8.34366C573.825 5.34062 575.978 2.52058 578.808 0.707113C579.177 0.465871 579.566 0.232948 579.954 0.0166626H795.724C796.41 0.528559 797.047 1.08487 797.628 1.6804C800.418 4.62521 801.584 8.85942 799.531 12.1869Z" fill="white"/>
<path opacity="0.9" d="M1366 561.66V648C1340.7 647.642 1315.43 646.786 1290.17 645.563C1269.84 644.57 1249.53 643.361 1229.24 641.936C1216.57 641.054 1202.67 639.623 1194.08 631.795C1191.33 629.3 1189.25 625.972 1189.56 622.645C1189.92 618.602 1193.55 615.266 1197.53 612.978C1209.18 606.323 1224.26 606.032 1238.4 605.982L1270.56 605.874C1278.79 605.874 1288.59 605.092 1292.57 599.086C1294.71 595.875 1294.5 591.965 1295.7 588.438C1298.85 579.23 1310.65 574.297 1321.45 571.111C1335.92 566.826 1350.83 563.662 1366 561.66V561.66Z" fill="white"/>
<path opacity="0.9" d="M161.371 59.6116C152.79 67.4395 138.886 68.9036 126.219 69.7355C105.92 71.1552 85.6076 72.3697 65.2821 73.379C43.5347 74.4383 21.774 75.1897 0 75.6334V0H37.5347C47.2622 3.18605 56.9001 8.01089 59.7306 16.2214C60.9366 19.7485 60.7273 23.6583 62.8602 26.8693C66.8469 32.8754 76.6442 33.6324 84.8767 33.6574L117.039 33.7655C131.162 33.8154 146.242 34.0983 157.903 40.7615C161.89 43.0492 165.547 46.3849 165.876 50.4278C166.205 53.8218 164.122 57.0994 161.371 59.6116Z" fill="white"/>
<path opacity="0.9" d="M149.152 624.15C148.013 625.19 146.758 626.137 145.405 626.979H2.08301V558.358C8.7275 559.822 15.3055 561.513 21.8171 563.432C32.631 566.627 44.4117 571.551 47.5612 580.76C48.7672 584.287 48.5579 588.197 50.6908 591.408C54.6775 597.414 64.4747 598.171 72.7073 598.196L104.87 598.304C118.993 598.354 134.072 598.637 145.734 605.3C149.72 607.588 153.378 610.924 153.707 614.966C153.986 618.36 151.903 621.638 149.152 624.15Z" fill="white"/>
<path opacity="0.9" d="M51.5676 110.905C50.4912 112.751 50.1224 115.064 51.3284 116.811C52.5344 118.558 54.9762 119.473 57.3084 120.138C68.4313 123.291 80.3216 123.865 92.0524 124.406C102.398 124.888 113.212 125.304 122.69 121.785C125.282 120.82 127.883 119.431 128.989 117.243C130.195 114.848 129.288 111.994 127.385 109.948C125.342 107.981 122.789 106.427 119.919 105.406C108.617 100.856 95.4212 99.9239 83.0425 100.198C73.1256 100.398 56.4014 102.578 51.5676 110.905Z" fill="white"/>
<path opacity="0.9" d="M1160.04 563.723C1158.96 565.57 1158.59 567.883 1159.8 569.63C1161 571.377 1163.45 572.292 1165.78 572.957C1176.9 576.11 1188.79 576.684 1200.52 577.225C1210.87 577.707 1221.68 578.123 1231.16 574.604C1233.75 573.639 1236.35 572.25 1237.46 570.062C1238.66 567.675 1237.76 564.813 1235.85 562.767C1233.81 560.799 1231.26 559.246 1228.39 558.225C1217.09 553.674 1203.89 552.743 1191.51 553.017C1181.6 553.217 1164.87 555.396 1160.04 563.723Z" fill="white"/>
<defs>
<linearGradient id="paint0_linear_327_565" x1="670.911" y1="796.455" x2="690.062" y2="-331.649" gradientUnits="userSpaceOnUse">
<stop offset="0.12" stop-color="#FFCBEA"/>
<stop offset="0.17" stop-color="#F8C7EC"/>
<stop offset="0.55" stop-color="#C6AAF6"/>
<stop offset="0.84" stop-color="#A799FD"/>
<stop offset="1" stop-color="#9B92FF"/>
</linearGradient>
</defs>
</svg>
