<svg width="126" height="104" viewBox="0 0 126 104" fill="none" xmlns="http://www.w3.org/2000/svg">
<path d="M9.97006 35.0799C11.5201 37.5799 7.67008 40.4299 6.12008 42.9399C3.23576 47.6329 1.80899 53.0763 2.02054 58.5807C2.23208 64.0852 4.07237 69.4031 7.30838 73.8609C10.5444 78.3187 15.0305 81.7159 20.1986 83.6222C25.3668 85.5286 30.9844 85.8584 36.3401 84.5699C38.3401 84.0899 40.4201 83.3999 42.3401 84.1299C43.7329 84.8435 44.9412 85.8704 45.8701 87.1299C55.0201 97.4099 71.26 100.55 83.58 94.4199C85.4561 97.0156 87.9825 99.0717 90.9053 100.381C93.8281 101.691 97.0442 102.208 100.23 101.88C96.6434 96.2844 94.8952 89.7078 95.2301 83.0699C114.47 80.1999 128.49 58.3999 123.13 39.6999C122.487 36.9824 121.134 34.4841 119.21 32.4599C117.87 31.1899 116.21 30.2599 115.14 28.7299C114.07 27.1999 113.9 25.2699 113.45 23.4799C111.17 14.4199 102.54 8.30986 93.7301 5.20986C80.831 0.723155 66.7603 0.946336 54.01 5.83986C51.61 6.76986 49.1301 8.83987 46.6501 8.12987C23.9501 1.65987 1.66006 21.6699 9.97006 35.0799Z" fill="#FED671" stroke="#231F20" stroke-width="3" stroke-linecap="round" stroke-linejoin="round"/>
<path d="M30.6904 58.2099C30.6904 57.4899 30.6904 56.5799 30.6904 55.4899C30.6904 54.3999 30.6904 53.2099 30.6904 51.9199C30.6904 50.6299 30.6904 49.3099 30.7604 47.9199C30.8304 46.5299 30.8204 45.2599 30.8604 43.9999C30.9004 42.7399 30.9404 41.6099 31.0004 40.6099C31.4504 40.5599 32.0004 40.5199 32.6004 40.4899L34.4204 40.4299H35.9304H36.6204C36.6204 40.4299 36.7104 40.6899 36.8304 41.0999C36.9504 41.5099 37.1004 42.0499 37.2804 42.7099L37.8804 44.8799C38.0904 45.6699 38.3104 46.4699 38.5304 47.2899L39.1604 49.6099C39.3604 50.3399 39.5204 50.9599 39.6504 51.4899C39.7804 52.0199 39.8604 52.3799 39.8904 52.5799L39.3704 52.6499C39.4704 52.3799 39.6104 51.9499 39.7904 51.3499C39.9704 50.7499 40.2004 50.0499 40.4404 49.2599C40.6804 48.4699 40.9204 47.6299 41.1704 46.7499C41.4204 45.8699 41.6604 45.0199 41.8904 44.1899C42.1204 43.3599 42.3304 42.6199 42.5104 41.9699C42.6904 41.3199 42.8104 40.8199 42.8804 40.4799H44.4004L46.2604 40.5599C46.7863 40.5897 47.3103 40.6464 47.8304 40.7299C48.0491 41.8109 48.1795 42.9079 48.2204 44.0099C48.3004 45.3499 48.3404 46.7699 48.3404 48.2599C48.3404 49.4599 48.3404 50.6799 48.3404 51.9199C48.3404 53.1599 48.2604 54.3099 48.2004 55.3899C48.1404 56.4699 48.0904 57.3899 48.0204 58.1299H46.5304L45.0004 58.0499L43.8504 57.9699C43.8504 57.3599 43.9404 56.5799 43.9804 55.6199C44.0204 54.6599 44.0604 53.6699 44.0904 52.6199C44.0904 51.9899 44.0904 51.3499 44.1504 50.7099C44.2104 50.0699 44.1504 49.4899 44.1504 48.9699C44.1504 48.4499 44.1504 48.0299 44.1504 47.7399L43.7204 49.1699L43.1004 51.1099C42.8671 51.8099 42.627 52.5199 42.3804 53.2399C42.1304 53.9599 41.8904 54.6499 41.6604 55.2899C41.4304 55.9299 41.2304 56.4999 41.0504 56.9699C40.9369 57.3109 40.8033 57.6448 40.6504 57.9699H40.0504H39.4404C39.1904 57.9699 38.9304 57.9699 38.6604 57.9699L37.7804 57.8799L37.6004 57.1199C37.5104 56.7299 37.4004 56.2599 37.2604 55.6899C37.1204 55.1199 36.9604 54.5099 36.8004 53.8399C36.6404 53.1699 36.4704 52.4799 36.3004 51.7799C36.1304 51.0799 35.9604 50.3999 35.7904 49.7799C35.6204 49.1599 35.4704 48.5199 35.3304 47.9899C35.1904 47.4599 35.0804 46.9899 34.9904 46.6899C34.9904 47.5799 34.9904 48.5299 34.9904 49.5399V52.5399C34.9904 53.5399 34.9904 54.3999 34.9904 55.2099C34.9904 56.0199 34.9904 56.6899 34.9904 57.2099V58.2099H33.7304H32.1404H30.6904Z" fill="#382A1F"/>
<path d="M55.9398 58.4699H54.6297C54.1297 58.4699 53.6297 58.4699 53.1097 58.4199C52.5897 58.3699 52.1097 58.3499 51.7197 58.2999C51.7197 57.6899 51.7197 56.9099 51.7197 55.9599C51.7197 55.0099 51.7197 53.9599 51.7197 52.9099C51.7197 51.8599 51.7197 50.7999 51.7197 49.8199C51.7197 48.3199 51.7197 46.7099 51.7197 44.9999C51.7197 43.2899 51.7198 41.5199 51.8098 39.6799H52.5697H53.7498H55.0197H56.0197C56.0797 40.6799 56.1297 41.7999 56.1697 43.0299C56.2097 44.2599 56.2298 45.5099 56.2498 46.7799C56.2698 48.0499 56.2498 49.2899 56.2498 50.4599C56.2498 51.0499 56.2498 51.6499 56.2498 52.2799C56.2498 52.9099 56.2498 53.5399 56.2498 54.1599C56.2498 54.7799 56.2498 55.3699 56.1898 55.9299C56.1298 56.4899 56.1397 57.0099 56.1097 57.4599C56.0797 57.9099 55.9798 58.1899 55.9398 58.4699Z" fill="#382A1F"/>
<path d="M64.4904 58.2999C63.9204 58.2999 63.3204 58.2999 62.6804 58.2999C62.0404 58.2999 61.4604 58.2299 60.9304 58.1799C60.4004 58.1299 59.9804 58.0899 59.6904 58.0599V50.9699C59.6904 50.0999 59.6904 49.2599 59.6904 48.4299C59.6904 47.4299 59.6904 46.4299 59.6904 45.3799C59.6904 44.3299 59.6904 43.4299 59.6904 42.5599C59.6904 41.6899 59.6904 40.9699 59.6104 40.3999C59.8004 40.3999 60.0803 40.3999 60.4703 40.3999L61.7404 40.4699L63.1003 40.5799C63.5503 40.5799 63.9203 40.6699 64.2303 40.7099C64.837 41.5966 65.427 42.4966 66.0004 43.4099C66.5704 44.3299 67.1104 45.2499 67.6204 46.1799C68.1304 47.1099 68.6203 48.0199 69.0703 48.9399C69.5203 49.8599 69.9503 50.7699 70.3503 51.6699L69.7703 40.6699C70.0503 40.6699 70.4003 40.6699 70.7703 40.6699L72.0403 40.7699C72.4703 40.7699 72.8804 40.8499 73.2504 40.9099C73.5337 40.9486 73.8142 41.0054 74.0903 41.0799C74.0903 41.4799 74.1504 41.9499 74.1804 42.4699C74.2104 42.9899 74.2403 43.5499 74.2603 44.1499C74.2803 44.7499 74.2603 45.3599 74.2603 45.9899C74.2603 46.6199 74.2603 47.2599 74.2603 47.8899C74.2603 48.5199 74.2603 49.1399 74.2603 49.7199C74.2603 50.6699 74.2603 51.6099 74.2603 52.5299C74.2603 53.4499 74.2603 54.3199 74.1603 55.1099C74.0603 55.8999 74.0803 56.5699 74.0303 57.1099C74.0065 57.473 73.9563 57.834 73.8803 58.1899H73.0403H72.1403C71.7003 58.1899 71.2703 58.1899 70.8503 58.1899C70.5153 58.1763 70.1814 58.1429 69.8503 58.0899L69.3803 57.2299L68.5703 55.7299L67.5703 53.8099L66.4103 51.6499C66.017 50.9232 65.627 50.2132 65.2404 49.5199C64.8604 48.8199 64.5004 48.1799 64.1804 47.5999C64.1804 47.8599 64.2103 48.2599 64.2703 48.7999C64.2703 49.3299 64.2703 49.9499 64.3503 50.6599C64.4303 51.3699 64.3503 52.0899 64.4103 52.8499C64.4703 53.6099 64.4103 54.3399 64.4703 55.0599C64.5303 55.7799 64.4703 56.4299 64.4703 56.9899C64.4703 57.5499 64.4904 57.9999 64.4904 58.2999Z" fill="#382A1F"/>
<path d="M76.2602 43.5999C76.1986 43.3099 76.1585 43.0158 76.1403 42.7199C76.1403 42.3399 76.0803 41.9399 76.0603 41.5199C76.0403 41.0999 76.0603 40.7199 76.0003 40.3899C75.9403 40.0599 76.0003 39.8299 76.0003 39.7099C77.047 39.6299 78.2469 39.5599 79.6003 39.4999C80.9503 39.4399 82.3103 39.4099 83.6903 39.4099C84.737 39.4099 85.757 39.4299 86.7503 39.4699C87.7503 39.4699 88.6403 39.5999 89.4603 39.7199C89.4737 40.4473 89.4504 41.1749 89.3903 41.8999C89.3565 42.4071 89.2898 42.9115 89.1903 43.4099H88.4103H87.2903H86.0803H85.0803C85.0803 43.7599 85.0803 44.2699 85.1403 44.9499C85.2003 45.6299 85.2003 46.4099 85.2403 47.2799C85.2803 48.1499 85.3203 49.0699 85.3603 50.0299C85.4003 50.9899 85.4603 51.9299 85.5003 52.8499C85.5403 53.7699 85.5803 54.6199 85.6103 55.3799C85.6403 56.1399 85.6703 56.7799 85.7003 57.2699C85.7303 57.7599 85.7003 58.0599 85.7003 58.1499C85.3203 58.2099 84.8403 58.2599 84.2303 58.3099L82.4403 58.4199C81.8403 58.4199 81.3503 58.4199 80.9803 58.4199C80.9803 57.8666 80.9503 57.1999 80.8903 56.4199C80.8903 55.6399 80.8402 54.7899 80.8202 53.8699C80.8002 52.9499 80.8202 52.0199 80.8202 51.0499C80.8202 50.0799 80.8202 49.1499 80.8202 48.2299C80.8202 47.3099 80.8202 46.4599 80.8202 45.6899V44.4799C80.8202 44.0999 80.8202 43.7599 80.8202 43.4799L79.8202 43.5299L78.6703 43.5799H77.5003L76.2602 43.5999Z" fill="#382A1F"/>
<path d="M94.7003 58.58C93.902 58.607 93.1244 58.3239 92.5303 57.79C92.2525 57.5373 92.032 57.2281 91.8836 56.8831C91.7353 56.5381 91.6626 56.1654 91.6703 55.79C91.6537 55.4245 91.725 55.0603 91.8781 54.728C92.0312 54.3957 92.2617 54.1049 92.5503 53.88C93.143 53.408 93.883 53.1602 94.6403 53.18C95.4031 53.1578 96.1472 53.4177 96.7303 53.91C97.0076 54.1309 97.2303 54.4127 97.3811 54.7335C97.532 55.0543 97.607 55.4055 97.6003 55.76C97.618 56.1437 97.552 56.5267 97.407 56.8824C97.2619 57.2381 97.0412 57.558 96.7603 57.82C96.1943 58.3245 95.4583 58.596 94.7003 58.58ZM96.4303 52.05C96.1603 52.05 95.7803 52.05 95.2903 52.05C94.8003 52.05 94.2903 52.05 93.8203 51.98C93.3503 51.91 92.9203 51.91 92.6103 51.88C92.5503 50.99 92.5003 50.06 92.4603 49.08C92.4203 48.1 92.3703 47.08 92.3403 46.08C92.3103 45.08 92.2803 44.08 92.2603 43.08C92.2403 42.08 92.2603 41.08 92.2603 40.15C92.2603 39.22 92.2603 38.32 92.2603 37.48L97.4703 37.71C97.4703 38.08 97.3603 38.71 97.2803 39.57C97.2003 40.43 97.1203 41.44 97.0403 42.57C96.9603 43.7 96.8603 44.86 96.7803 46.05C96.7003 47.24 96.6303 48.37 96.5703 49.43C96.5103 50.49 96.4103 51.34 96.4103 52.05H96.4303Z" fill="#382A1F"/>
</svg>
