<svg width="10" height="9" viewBox="0 0 10 9" fill="none" xmlns="http://www.w3.org/2000/svg">
<path d="M4.43937 3.10398C4.46102 2.97754 4.49405 2.83061 4.51227 2.68367C4.5618 2.21054 4.74958 1.76247 5.05218 1.39541C5.32084 1.05751 5.68987 0.813665 6.10605 0.699024C6.52224 0.584384 6.96408 0.604874 7.36787 0.757541C7.86337 0.919735 8.28935 1.24494 8.5764 1.68017C8.78619 2.00654 8.933 2.36932 9.00924 2.74974C9.11548 3.26919 9.15149 3.80056 9.11631 4.3296C9.0692 5.13719 8.9437 5.93829 8.74156 6.7216C8.62766 7.19772 8.48756 7.66815 8.35998 8.14199C8.35087 8.17274 8.34176 8.19211 8.30189 8.19211C7.47435 8.22383 6.64567 8.20824 5.8199 8.14541C5.07806 8.09384 4.34482 7.95544 3.63521 7.73308C3.17834 7.59193 2.7494 7.37264 2.36744 7.08496C1.62364 6.5029 1.31382 5.73632 1.43456 4.80686C1.49553 4.33917 1.73063 3.91168 2.09293 3.60972C2.34319 3.39329 2.63669 3.23268 2.9539 3.1386C3.2711 3.04452 3.60471 3.01913 3.9325 3.06412C4.10677 3.07551 4.28332 3.09031 4.43937 3.10398Z" fill="#FF7C7E" stroke="#302C2C" stroke-width="1.03767" stroke-miterlimit="10"/>
</svg>
