<svg width="11" height="9" viewBox="0 0 11 9" fill="none" xmlns="http://www.w3.org/2000/svg">
<path d="M6.033 2.45796C6.15601 2.41582 6.29839 2.37367 6.43736 2.31786C6.87616 2.13095 7.3604 2.07785 7.82928 2.16522C8.25514 2.23645 8.64732 2.44125 8.94913 2.75002C9.25094 3.05879 9.44674 3.45554 9.50824 3.88291C9.6061 4.39479 9.52781 4.92473 9.28612 5.38645C9.10239 5.72797 8.85628 6.03203 8.56055 6.28289C8.15762 6.62813 7.70968 6.91705 7.229 7.14173C6.49834 7.49171 5.73539 7.76981 4.9509 7.9721C4.4782 8.09853 3.99979 8.20788 3.52367 8.3252C3.49291 8.33203 3.47241 8.33318 3.45191 8.299C3.02389 7.58985 2.63638 6.85703 2.29122 6.10405C1.97938 5.42983 1.74881 4.72093 1.60437 3.99226C1.50653 3.52434 1.49035 3.04302 1.55654 2.56959C1.70689 1.6367 2.22744 0.995421 3.10223 0.64915C3.54155 0.476813 4.02976 0.476813 4.46909 0.64915C5.12632 0.890629 5.56599 1.35878 5.83594 1.99551C5.89859 2.1527 5.97035 2.3133 6.033 2.45796Z" fill="#FF7C7E" stroke="#302C2C" stroke-width="1.03767" stroke-miterlimit="10"/>
</svg>
