<svg width="10" height="9" viewBox="0 0 10 9" fill="none" xmlns="http://www.w3.org/2000/svg">
<path d="M6.48635 3.57475C6.49546 3.44603 6.49888 3.29682 6.5171 3.14874C6.58436 2.67663 6.51065 2.19517 6.30524 1.7648C6.1262 1.3715 5.82682 1.04527 5.45032 0.833174C5.07383 0.621074 4.63968 0.534077 4.21053 0.584744C3.69067 0.622945 3.19896 0.835681 2.81519 1.18844C2.53112 1.45443 2.29933 1.77122 2.13176 2.12246C1.90288 2.60063 1.73965 3.10753 1.64653 3.62942C1.49824 4.42488 1.42691 5.23278 1.43353 6.04192C1.43353 6.53172 1.45175 7.02151 1.462 7.5113C1.462 7.54319 1.4677 7.56484 1.50529 7.57509C2.30108 7.80462 3.10919 7.98905 3.92577 8.12752C4.65818 8.2572 5.40337 8.29964 6.14577 8.25396C6.62298 8.22724 7.09196 8.11818 7.53199 7.93161C8.39539 7.54547 8.87949 6.87571 8.9877 5.94169C9.04112 5.47405 8.91625 5.00346 8.63801 4.62381C8.23479 4.05429 7.66982 3.74788 6.98525 3.65106C6.81553 3.626 6.6424 3.59867 6.48635 3.57475Z" fill="#FF7C7E" stroke="#302C2C" stroke-width="1.03767" stroke-miterlimit="10"/>
</svg>
